<svg xmlns="http://www.w3.org/2000/svg" xmlns:xlink="http://www.w3.org/1999/xlink" version="1.1" width="1000" height="1000" viewBox="0 0 1000 1000" xml:space="preserve">
<desc>Created with Fabric.js 3.5.0</desc>
<defs>
</defs>
<rect x="0" y="0" width="100%" height="100%" fill="#ffffff"/>
<g transform="matrix(51.9852 0 0 51.9852 500.0001 500.0001)" id="766200">
<g style="" vector-effect="non-scaling-stroke">
		<g transform="matrix(1 0 0 1 0 0)">
<rect style="stroke: none; stroke-width: 1; stroke-dasharray: none; stroke-linecap: butt; stroke-dashoffset: 0; stroke-linejoin: miter; stroke-miterlimit: 4; is-custom-font: none; font-file-url: none; fill: rgb(255,255,255); fill-rule: nonzero; opacity: 1;" x="-12" y="-12" rx="0" ry="0" width="24" height="24"/>
</g>
		<g transform="matrix(1 0 0 1 0 0)">
<rect style="stroke: rgb(0,0,0); stroke-width: 1; stroke-dasharray: none; stroke-linecap: butt; stroke-dashoffset: 0; stroke-linejoin: miter; stroke-miterlimit: 4; is-custom-font: none; font-file-url: none; fill: none; fill-rule: nonzero; opacity: 1;" x="-9" y="-9" rx="3" ry="3" width="18" height="18"/>
</g>
</g>
</g>
<g transform="matrix(45.4545 0 0 45.4545 499.4995 499.4996)" id="277039">
<path style="stroke: none; stroke-width: 0; stroke-dasharray: none; stroke-linecap: butt; stroke-dashoffset: 0; stroke-linejoin: miter; stroke-miterlimit: 4; is-custom-font: none; font-file-url: none; fill: rgb(0,0,0); fill-rule: nonzero; opacity: 1;" vector-effect="non-scaling-stroke" transform=" translate(-10, -10)" d="M 9.26 13 a 2 2 0 0 1 0.01 -2.01 A 3 3 0 0 0 9 5 H 5 a 3 3 0 0 0 0 6 h 0.08 a 6.06 6.06 0 0 0 0 2 H 5 A 5 5 0 0 1 5 3 h 4 a 5 5 0 0 1 0.26 10 z m 1.48 -6 a 2 2 0 0 1 -0.01 2.01 A 3 3 0 0 0 11 15 h 4 a 3 3 0 0 0 0 -6 h -0.08 a 6.06 6.06 0 0 0 0 -2 H 15 a 5 5 0 0 1 0 10 h -4 a 5 5 0 0 1 -0.26 -10 z" stroke-linecap="round"/>
</g>
</svg>