<svg viewBox="0 0 512 512" xmlns="http://www.w3.org/2000/svg"><g data-name="1"><path d="M293.9 450h-60.37a15 15 0 0 1-14.92-13.42l-4.47-42.09a152.77 152.77 0 0 1-18.25-7.56L163 413.53a15 15 0 0 1-20-1.06l-42.69-42.69a15 15 0 0 1-1.06-20l26.61-32.93a152.15 152.15 0 0 1-7.57-18.25l-42.16-4.5a15 15 0 0 1-13.42-14.91v-60.38a15 15 0 0 1 13.42-14.91l42.09-4.47a152.15 152.15 0 0 1 7.57-18.25l-26.61-32.93a15 15 0 0 1 1.06-20l42.69-42.69a15 15 0 0 1 20-1.06l32.93 26.6a152.77 152.77 0 0 1 18.25-7.56l4.47-42.09A15 15 0 0 1 233.53 48h60.37a15 15 0 0 1 14.92 13.42l4.46 42.09a152.91 152.91 0 0 1 18.26 7.56l32.92-26.6a15 15 0 0 1 20 1.06l42.69 42.69a15 15 0 0 1 1.06 20l-26.61 32.93a153.8 153.8 0 0 1 7.57 18.25l42.09 4.47a15 15 0 0 1 13.41 14.91v60.38a15 15 0 0 1-13.37 14.94l-42.09 4.47a153.8 153.8 0 0 1-7.57 18.25l26.61 32.93a15 15 0 0 1-1.06 20l-42.69 42.72a15 15 0 0 1-20 1.06l-32.92-26.6a152.91 152.91 0 0 1-18.26 7.56l-4.46 42.09A15 15 0 0 1 293.9 450ZM247 420h33.39l4.09-38.56a15 15 0 0 1 11.06-12.91A123 123 0 0 0 325.7 356a15 15 0 0 1 17 1.31l30.16 24.37 23.61-23.61L372.06 328a15 15 0 0 1-1.31-17 122.63 122.63 0 0 0 12.49-30.14 15 15 0 0 1 12.92-11.06l38.55-4.1v-33.39l-38.55-4.1a15 15 0 0 1-12.92-11.06A122.63 122.63 0 0 0 370.75 187a15 15 0 0 1 1.31-17l24.37-30.16-23.61-23.61-30.16 24.37a15 15 0 0 1-17 1.31 123 123 0 0 0-30.14-12.49 15 15 0 0 1-11.06-12.91L280.41 78H247l-4.09 38.56a15 15 0 0 1-11.07 12.91A122.79 122.79 0 0 0 201.73 142a15 15 0 0 1-17-1.31l-30.13-24.41-23.6 23.61 24.38 30.16a15 15 0 0 1 1.3 17 123.41 123.41 0 0 0-12.49 30.14 15 15 0 0 1-12.91 11.06l-38.56 4.1v33.38l38.56 4.1a15 15 0 0 1 12.91 11.06A123.41 123.41 0 0 0 156.67 311a15 15 0 0 1-1.3 17L131 358.11l23.61 23.61 30.17-24.37a15 15 0 0 1 17-1.31 122.79 122.79 0 0 0 30.13 12.49 15 15 0 0 1 11.07 12.91Zm202.71-140.81Z" fill="#f4f4f2" class="fill-000000"></path><path d="M263.71 340.36A91.36 91.36 0 1 1 355.08 249a91.46 91.46 0 0 1-91.37 91.36Zm0-152.72A61.36 61.36 0 1 0 325.08 249a61.43 61.43 0 0 0-61.37-61.36Z" fill="#f4f4f2" class="fill-000000"></path></g></svg>